# xmcd
#
# Track frame offsets: 
#        150
#        23960
#        40330
#        63290
#        93340
#        110927
#        130930
#        147142
#        161555
#        178037
#        202702
#        215625
#        240482
#        259957
#
# Disc length: 3785 seconds
#
# Revision: 4
# Processed by: cddbd v1.5.2PL0 Copyright (c) Steve Scherf et al.
# Submitted via: ExactAudioCopy v0.99pb4
#
DISCID=c90ec70e
DTITLE=Waylon Jennings - Never Say Die-Live
DYEAR=2000
DGENRE=Country
TTITLE0=Closing In On The Fire
TTITLE1=Waymore's Blues
TTITLE2=Never Say Die
TTITLE3=Medley: Amanda/A Couple More Years
TTITLE4=Drift Away
TTITLE5=Nothing Catches Jesus By Surprise
TTITLE6=Good Hearted Woman
TTITLE7=I'm Not Lisa
TTITLE8=Storms Never Last
TTITLE9=Never Been To Spain
TTITLE10=(I'm A) Ramblin' Man
TTITLE11=Goin' Down Rockin'
TTITLE12=I've Always Been Crazy
TTITLE13=Can't You See
EXTD=
EXTT0=
EXTT1=with John Anderson
EXTT2=
EXTT3=
EXTT4=
EXTT5=
EXTT6=
EXTT7=with Jessi Colter
EXTT8=with Jessi Colter
EXTT9=
EXTT10=with Montgomery Gentry
EXTT11=
EXTT12=with Travis Tritt
EXTT13=
PLAYORDER=
